<?xml version="1.0" encoding="UTF-8"?>
<svg width="1315px" height="349px" viewBox="0 0 1315 349" version="1.1" xmlns="http://www.w3.org/2000/svg" xmlns:xlink="http://www.w3.org/1999/xlink">
    <!-- Generator: Sketch 40.3 (33839) - http://www.bohemiancoding.com/sketch -->
    <title>Artboard</title>
    <desc>Created with Sketch.</desc>
    <defs></defs>
    <g id="Page-1" stroke="none" stroke-width="1" fill="none" fill-rule="evenodd">
        <g id="Artboard">
            <path d="M224.934015,106.537048 C215.447989,79.089374 193.979614,66.6173155 174.565032,66.6173155 C139.400924,66.6173155 121,100.443916 121,133.862784 C121,167.40359 138.674721,203.931899 172.110315,239.499939 C197.160534,266.139768 221.809829,282.677726 222.846181,283.367442 C223.481609,283.794228 224.207812,284 224.934015,284 C225.750993,284 226.567972,283.733259 227.248787,283.203587 C227.502201,283.009247 252.86257,263.121782 277.852273,234.412802 C311.700138,195.521928 328.860465,159.778601 328.860465,128.173574 C328.860465,97.2773165 310.879377,66 276.513336,66 C256.580578,66 234.563769,78.6702092 224.934015,106.537048 Z" id="Stroke-63" stroke="#FFFFFF" stroke-width="5" stroke-linecap="round" stroke-linejoin="round"></path>
            <g id="Group-2" transform="translate(173.000000, 112.000000)">
                <path d="M0.272334764,87.4690024 C0.272334764,87.4690024 0.272334764,82.1723142 5.6028369,78.0809621 C8.10769514,76.1592149 7.84492391,71.9048878 8.01555458,68.6895264 C8.50014568,59.539158 10.9196886,42.2026899 24.9557675,35.9417328" id="Stroke-51" stroke="#000000" stroke-width="2.025" stroke-linecap="round" stroke-linejoin="round" fill="#FFFFFF"></path>
                <path d="M22.7118191,43.5835551 C22.7118191,44.0969185 30.2531874,-3.85144678 38.5385472,0.361574425 C40.7468492,1.48348389 43.8922702,32.5073653 45.3329083,32.982921 C45.8624039,33.1581191 49.4553736,33.9086715 54.2980294,35.7988733 C57.1092257,36.8961489 59.9662894,38.5496806 62.6539166,40.0872892 C65.2961723,41.5989404 67.3556696,43.1951744 68.7629329,45.263614 C70.1516193,47.3047488 71.8496676,49.1756338 72.6831737,51.2844175 C72.7186094,51.3740704 75.1584008,54.5959527 80.7368,56.5424114 C89.6203917,59.6421436 108.193256,62.5406291 108.262614,63.9325136 C108.435851,67.4077657 108.577707,69.5801037 107.213168,71.68724 C106.716263,72.4545658 106.622253,73.1240565 105.403219,73.9710611 C100.821071,77.1548129 102.569255,77.7437967 99.8006202,80.8681482 C98.756695,82.046198 83.3945257,85.2785004 68.0500024,86.5805524 C55.7347298,87.6255589 43.4107955,87.2066375 38.6602912,85.14444" id="Stroke-53" stroke="#000000" stroke-width="2.025" stroke-linecap="round" stroke-linejoin="round" fill="#FFFFFF"></path>
                <path d="M98.6368675,60.1953125 C98.6368675,60.1953125 94.696207,69.269898 104.769336,72.4446911 C110.675405,74.3075862 108.821556,64.7382277 108.821556,64.7382277 L98.6368675,60.1953125 L175.75337,105.664673" id="Fill-55" fill="#000000"></path>
                <path d="M72.0786846,87.4690024 C72.0786846,87.4690024 57.283566,88.968402 50.4140401,103.646198 C49.0150066,106.638197 51.8504264,109.290197 47.3952518,114.352795" id="Stroke-57" stroke="#000000" stroke-width="2.025" stroke-linecap="round" stroke-linejoin="round"></path>
                <path d="M0.272334764,87.4690024 C0.272334764,87.4690024 29.6477912,115.990085 47.3952518,114.278751" id="Stroke-59" stroke="#000000" stroke-width="2.025" stroke-linecap="round" stroke-linejoin="round"></path>
                <path d="M4.76023163,78.5077381 C4.76023163,78.5077381 30.1382198,106.974091 47.3952518,105.322332" id="Stroke-61" stroke="#000000" stroke-width="2.025" stroke-linecap="round" stroke-linejoin="round"></path>
                <path d="M38.6841518,102.616653 C35.4624191,101.319888 30.6050861,98.8224743 26.7655851,96.402607 C26.5171061,96.2460016 23.619712,94.1887549 21.6523039,92.679882 C19.5383569,91.0586235 17.2519062,88.7558455 16.9919483,88.5869026 C8.5419636,83.0953799 6.68207908,78.6167908 6.68207908,78.6167908 L9.01422991,74.7861481 L9.26371173,69.5617867 L21.6523039,42.7027607 C21.6523039,42.7027607 22.5035221,44.2129421 22.6575205,44.5895672 C28.1517205,58.0264187 38.5968989,84.5360374 38.5968989,84.5360374 L37.8238999,84.6150017 L37.8238999,86.1455917 L38.6841518,86.1455917 C38.6841518,86.1455917 46.0554847,88.420639 47.5808753,88.420639 C49.1062659,88.420639 64.7666215,88.5869026 64.7666215,88.5869026 C64.7666215,88.5869026 54.868463,93.9775276 52.926977,97.3010445 C50.9854911,100.624561 49.7591279,100.769768 49.0773278,103.87701 C48.8203014,105.048385 45.3016428,105.280231 38.6841518,102.616653 Z" id="Path-2" stroke="#FFFFFF" stroke-width="1.8" fill="#FFFFFF"></path>
                <path d="M5.61936968,91.1633301 C4.14370202,89.8585833 1.3881537,87.1609402 1.3881537,87.1609402 C1.3881537,87.1609402 0.555853345,86.2737989 2.31647602,83.451705 C2.50514252,83.1492923 2.6977285,82.8678088 2.86520445,82.5699377 C3.08873187,82.172374 3.40415562,81.7801508 3.58756186,81.524868 C4.54909201,80.1865158 4.84088993,80.0181866 4.84088993,80.0181866 L11.5516883,86.6992188 L15.9883211,90.7775021 L20.2869499,94.3712521 L24.1530413,97.3618031 L30.3618064,101.313305 L36.5231081,104.298811 L40.7777816,105.670376 L44.1036944,106.344204 L46.7290631,106.344204 L48.191316,106.046772 L49.1981226,106.344204 C49.1981226,106.344204 49.3770135,109.238901 48.8738839,110.131197 C48.6222784,110.577417 48.3990854,111.499668 47.9615647,112.204776 C47.5241859,112.909655 46.8724384,113.397465 46.8724384,113.397465 C46.8724384,113.397465 45.503101,113.505511 44.1036944,113.397465 C42.6101958,113.282154 41.2344342,112.889023 40.3134561,112.611442 C39.505605,112.367957 39.124641,112.335532 38.6152039,112.204776 C37.8294743,112.003104 37.4269135,111.701359 36.5231081,111.402082 C34.1685536,110.622421 32.3305858,109.61453 31.1156224,109.004092 C29.9681857,108.427582 24.8850446,105.912642 20.6986601,102.884583 C16.5122757,99.8565245 10.8625438,95.5379486 10.8625438,95.5379486 C10.8625438,95.5379486 7.30183207,92.6509194 5.61936968,91.1633301 Z" id="Path-3" fill="#595959"></path>
            </g>
            <text id="Big-Dogs-Big-Hearts" font-family="BigJohn, Big John" font-size="115.2" font-weight="normal" letter-spacing="0.183039999" fill="#FFFFFF">
                <tspan x="390" y="162">Big Dogs</tspan>
                <tspan x="390" y="277">Big Hearts</tspan>
            </text>
            <text id="Rescue-inc." font-family="ADAM.CGPRO, ADAM.CG PRO" font-size="24" font-weight="normal" letter-spacing="0.0381333306" fill="#FFFFFF">
                <tspan x="1005" y="315">Rescue inc.</tspan>
            </text>
        </g>
    </g>
</svg>